<?xml version="1.0" encoding="utf-8"?><!DOCTYPE svg PUBLIC "-//W3C//DTD SVG 1.1//EN" "http://www.w3.org/Graphics/SVG/1.1/DTD/svg11.dtd"><svg version="1.1" id="Contours" xmlns="http://www.w3.org/2000/svg" xmlns:xlink="http://www.w3.org/1999/xlink" x="0px" y="0px" width="1281.126465px" height="1281.126465px" viewBox="0.000000 0.000000 1281.126465 1461.854736" enable-background="new 0 0 1281.126465 1281.126465" xml:space="preserve" stroke="black" fill="none" stroke-linecap='round' stroke-linejoin='round'><path class="selected"  fill="#000000" opacity="1.000000" stroke="none" 
 	d="
M480.167587 1160.854691 C481.834213 1161.647537 483.500900 1162.440262 485.167587 1163.232986 C482.423355 1165.461746 486.176529 1170.688675 480.744766 1172.180740 C479.337082 1172.567459 477.879654 1177.090897 478.366775 1179.288284 C480.191757 1187.520828 477.224350 1194.694046 474.507309 1201.987503 C471.867874 1209.072586 466.130050 1213.579056 461.255112 1219.014847 C455.967300 1224.911087 449.842789 1229.323563 443.650894 1233.552322 C433.350418 1240.586746 421.526962 1244.821976 409.199142 1246.760330 C386.846573 1250.274490 367.464798 1242.446121 349.626236 1229.776566 C340.841263 1223.537186 331.506668 1217.828568 323.704727 1210.510941 C314.469162 1201.848587 306.165176 1192.065018 298.339157 1182.076492 C293.713699 1176.172806 291.003097 1168.803543 287.019241 1162.347733 C284.995193 1159.067703 282.215103 1161.104080 279.933487 1162.610062 C270.619949 1168.757523 260.058304 1170.049393 249.551178 1168.615921 C240.378372 1167.364334 230.967010 1166.291946 222.390930 1161.910843 C210.854629 1156.017654 198.951828 1150.826736 187.540573 1144.710892 C182.681412 1142.106522 178.485748 1138.128494 174.313644 1134.409988 C168.041641 1128.819901 161.416794 1123.436356 156.106460 1117.003616 C149.196777 1108.633499 143.220489 1099.458694 137.220917 1090.380203 C130.023529 1079.489212 124.816955 1067.656082 120.849266 1055.167435 C116.350403 1041.006790 113.879257 1026.596512 115.323402 1011.876419 C116.573738 999.132034 117.707886 986.053421 121.564285 973.975235 C125.699852 961.022598 132.527160 948.835648 139.024338 936.769302 C142.381027 930.535416 147.626037 925.329666 151.876297 919.555191 C152.655838 918.496170 152.754577 916.935989 153.167587 915.607132 C152.154159 915.356339 151.124313 915.157730 150.130356 914.845047 C147.036438 913.871475 143.983230 912.758987 140.864761 911.874954 C134.741714 910.139297 128.346512 909.108231 122.494354 906.727554 C111.668083 902.323257 102.275596 895.744522 95.010277 886.293167 C90.673561 880.651749 84.912147 875.940323 81.383095 869.883377 C76.522987 861.541885 73.029785 852.382828 69.203323 843.465775 C64.681770 832.928848 62.900886 821.718704 62.224457 810.379044 C61.327137 795.336441 60.137752 780.259903 60.348991 765.215836 C60.596927 747.558426 63.588188 730.095779 68.315201 713.070877 C70.068641 706.755569 73.386268 700.852798 76.190300 694.855301 C83.109329 680.056107 90.955124 665.747940 103.129013 654.573318 C111.158874 647.202469 119.936302 640.632034 128.522537 633.885880 C135.268768 628.585342 142.257995 623.595108 149.093445 618.406631 C152.650284 615.706741 150.915954 613.846146 147.995300 612.167374 C140.318985 607.754837 132.011963 604.107071 125.215782 598.600174 C119.689277 594.122086 114.653816 587.953995 111.926086 581.472549 C109.985626 576.861771 111.492554 570.306290 112.767196 564.928360 C116.661415 548.498001 125.132187 534.150711 134.963867 520.670609 C144.445144 507.670914 153.578583 494.247269 164.444427 482.466812 C181.684936 463.775070 200.296768 446.543411 223.449753 434.761429 C234.977661 428.895157 246.494842 423.517258 259.054672 420.497696 C263.322708 419.471634 267.776810 419.078781 271.907242 417.687912 C273.645767 417.102463 275.518570 414.898392 276.048477 413.060471 C280.262222 398.446457 283.756851 383.615616 288.277237 369.102066 C293.307327 352.952164 302.331192 339.109695 314.874374 327.625748 C324.487045 318.824722 335.050430 311.181747 347.179123 306.646072 C358.470901 302.423386 370.437485 299.988266 382.146622 296.917160 C383.861831 296.467270 385.796707 296.854691 387.629928 296.854691 C393.520126 296.854691 399.410385 296.841141 405.300552 296.857437 C419.057449 296.895493 432.074508 300.699570 444.867966 305.147354 C462.604965 311.313797 479.897690 318.750168 495.004074 330.018326 C504.394455 337.022842 512.741501 345.469101 521.267380 353.572800 C526.160324 358.223465 526.004989 358.517624 530.613571 352.666275 C536.505905 345.185043 543.153000 338.564407 551.817367 335.045547 C562.980820 330.511734 574.456894 326.094528 586.921127 326.901443 C595.658981 327.467056 604.681259 327.297318 613.025253 329.522903 C630.170639 334.096115 646.489914 341.090744 662.286850 349.340500 C675.656235 356.322556 687.809128 364.916550 699.430466 374.420059 C700.366134 375.185196 703.088363 375.061966 704.087753 374.251236 C713.569992 366.558823 724.187668 362.667801 736.467758 361.588638 C745.095016 360.830429 753.240646 361.301559 761.322311 363.887802 C776.016647 368.590225 789.125961 376.021255 799.431991 387.692184 C808.256210 397.684952 814.211288 409.126572 817.355881 422.280502 C819.347519 430.611771 823.305527 438.459244 826.069321 446.629349 C826.749008 448.638657 826.103012 451.068497 826.268478 453.289993 C826.370407 454.659012 826.587082 456.177292 827.306320 457.260727 C827.574081 457.664169 829.432236 457.083725 830.542038 456.844620 C838.188705 455.197250 845.803024 453.384842 853.481430 451.904373 C858.320358 450.971390 863.236252 450.290390 868.149093 449.947128 C870.807968 449.761337 873.551620 450.412460 876.225021 450.872147 C895.118759 454.120743 913.886581 458.002975 931.051071 466.943619 C940.953964 472.101822 951.603561 476.886368 957.567550 486.978958 C962.732406 495.719131 967.196029 504.969498 971.006882 514.384048 C974.129196 522.097672 976.691879 530.253250 977.952133 538.451248 C979.553451 548.867691 974.999557 558.318985 969.483688 566.782608 C965.213058 573.335648 960.173508 579.692642 954.330063 584.834671 C947.772690 590.605057 940.122543 595.238113 932.581344 599.754105 C926.244064 603.549088 919.340439 606.389175 912.789230 609.844803 C911.655563 610.442764 910.134872 612.178726 910.315353 613.086380 C911.344284 618.261002 913.925339 623.351334 913.890487 628.456131 C913.847153 634.778397 917.684616 632.705399 920.565048 632.802505 C925.949142 632.984085 931.347702 632.724808 936.732834 632.890213 C942.432663 633.065262 948.225754 632.958267 953.798569 633.966568 C967.260116 636.402420 979.582504 641.606033 990.744125 649.786331 C1000.609665 657.016739 1005.191086 668.067032 1012.204696 677.354935 C1012.584274 677.857620 1013.500961 677.954788 1014.167587 678.240799 C1014.430099 677.541275 1014.692612 676.841751 1014.955124 676.142227 C1015.359299 676.974747 1015.802902 677.790970 1016.156479 678.644485 C1016.509994 679.497940 1016.903244 680.367569 1017.050583 681.267532 C1017.414718 683.490921 1018.627182 685.175003 1017.541550 688.120193 C1016.274093 691.558548 1017.786972 696.043839 1018.185531 700.065750 C1018.420578 702.437271 1018.770126 704.802811 1019.199325 707.147110 C1019.370590 708.082901 1019.894821 708.954117 1020.258468 709.854691 C1020.894882 708.864883 1022.090866 707.862076 1022.068100 706.887650 C1021.981552 703.186844 1021.476364 699.497086 1021.192428 695.798233 C1021.146469 695.199295 1021.429001 694.575089 1021.559677 693.962601 C1021.762314 694.640030 1022.035202 695.305008 1022.156906 695.996719 C1023.943710 706.148819 1023.436142 716.276688 1021.060165 726.224930 C1020.034164 730.520645 1017.832016 734.535110 1016.172653 738.680740 C1016.058029 738.967117 1016.109665 739.459000 1015.924789 739.558060 C1010.126205 742.663284 1009.406235 743.666763 1007.118454 751.349258 C1006.916550 752.027420 1005.955002 752.447403 1005.476486 753.085037 C1005.096969 753.590897 1004.554794 754.642776 1004.702133 754.777542 C1007.818039 757.627823 1005.224411 759.494949 1003.390243 761.013260 C1000.675339 763.260574 998.294113 765.377945 998.033859 769.297379 C997.945053 770.634171 996.421432 771.975906 995.352646 773.129349 C991.544662 777.238663 991.187424 782.658218 991.415390 787.479691 C991.740707 794.358475 992.908371 800.897049 990.370590 807.822098 C988.075912 814.083817 987.513351 820.978287 986.153000 827.586746 C985.967514 828.487808 985.615646 829.359940 985.287643 830.225296 C984.718857 831.726028 984.108444 833.211014 983.515487 834.702591 C984.909408 833.743423 986.339706 832.832169 987.686020 831.810196 C988.801803 830.963272 989.818405 829.985733 990.879013 829.066116 C990.308456 830.416702 989.688278 831.748672 989.175217 833.120804 C984.577255 845.417862 972.753097 849.321182 963.139877 855.956985 C950.956772 864.366898 936.754318 867.955032 923.536667 873.875137 C910.898056 879.535965 897.361923 881.787369 883.952377 884.503494 C880.751755 885.151810 877.406051 885.387100 874.136825 885.322403 C869.155746 885.223831 869.748459 888.736526 870.254196 891.469254 C872.412155 903.129349 869.476425 914.135696 865.533615 924.743179 C862.593490 932.652847 857.869430 939.884964 854.250473 947.565140 C853.057052 950.097855 852.993637 953.141068 852.092270 955.843643 C851.710190 956.989517 850.500961 957.859451 849.417587 958.604691 C849.058639 957.579056 848.949692 956.803482 848.840744 956.027847 C848.144333 956.608841 847.101242 957.080521 846.871689 957.808670 C846.715133 958.305130 847.695541 959.160049 848.167587 959.854691 C842.120285 964.735245 836.108505 969.661026 829.997543 974.460526 C828.683212 975.492813 826.988144 976.029373 825.509506 976.866776 C824.254806 977.577408 821.137070 977.497208 823.966110 980.153152 C823.168747 980.720413 822.422226 981.382523 821.566452 981.840652 C806.649032 989.828568 790.852707 995.589432 774.513901 999.789017 C764.070785 1002.473221 753.548446 1005.070389 742.907638 1006.702591 C731.926987 1008.386551 720.776474 1009.301712 709.669052 1009.715897 C700.442062 1010.059891 691.168197 1008.982010 681.918930 1009.051834 C680.325119 1009.063919 677.447616 1011.604691 677.380173 1013.078934 C676.958847 1022.283279 677.144455 1031.516800 677.239181 1040.739456 C677.243759 1041.178909 678.438278 1041.510818 678.809921 1042.070999 C679.129013 1042.551956 679.141220 1043.289993 679.127914 1043.910843 C679.122848 1044.148026 678.489548 1044.606277 678.446945 1044.573196 C677.659592 1043.959549 676.663009 1043.420486 676.229782 1042.593704 C675.639633 1041.467361 675.486801 1040.111893 675.146347 1038.854691 C674.392563 1040.115555 673.379196 1041.293655 672.943771 1042.656204 C672.233200 1044.879715 667.884262 1047.868729 673.925094 1049.112137 C673.379684 1050.819168 672.926132 1052.563187 672.260971 1054.222122 C671.688583 1055.649979 670.874740 1056.980911 670.167587 1058.604691 C664.672470 1059.593582 661.927841 1064.491409 664.167587 1069.561844 C665.176681 1071.846146 665.005234 1071.570633 662.608322 1073.062576 C660.855636 1074.153641 659.478683 1075.982498 658.248215 1077.706497 C657.812424 1078.317093 658.305038 1079.590164 658.373703 1080.560745 C658.962387 1080.168045 659.517135 1079.694534 660.157821 1079.425613 C660.387741 1079.329300 660.824997 1079.727005 661.167587 1079.899246 C659.609970 1081.217728 657.984848 1082.466263 656.519455 1083.880447 C655.610214 1084.757767 654.709946 1085.784134 654.211960 1086.921463 C652.809738 1090.124100 652.488937 1093.672440 648.064255 1095.073196 C645.569931 1095.862747 643.494247 1098.637161 641.712082 1100.897659 C634.371261 1110.208084 623.251938 1114.101395 613.906784 1120.510818 C601.681381 1128.895828 587.552109 1133.110672 573.285568 1135.638382 C547.278061 1140.246536 522.387253 1136.886673 500.064377 1121.323929 C496.254715 1118.668045 492.096084 1116.494583 487.994125 1114.293045 C487.248184 1113.892532 485.347915 1114.107132 485.091507 1114.607254 C484.188766 1116.368362 483.770004 1118.377640 483.167587 1120.292679 C483.772018 1120.480057 484.880203 1120.623489 484.901016 1120.861771 C485.063888 1122.726151 485.395584 1124.707352 484.937851 1126.460037 C484.403763 1128.505203 482.841171 1130.274979 482.257950 1132.316605 C481.800552 1133.917679 482.272171 1133.830032 484.463333 1135.108353 C485.102310 1135.481033 485.230545 1137.339188 485.030746 1138.411575 C484.625351 1140.587845 481.673385 1143.295853 486.625992 1143.938187 C486.710495 1143.949173 486.854050 1145.322220 486.583908 1145.868973 C486.032638 1146.985062 485.151932 1147.933548 484.533218 1149.022781 C484.070785 1149.837112 483.806198 1150.763870 483.453415 1151.640457 C483.379959 1150.523392 483.260971 1149.406937 483.245102 1148.289139 C483.227279 1147.034988 483.327804 1145.778763 483.291153 1144.525955 C483.288162 1144.422195 482.332138 1144.229202 482.320968 1144.259964 C481.899826 1145.420364 481.329452 1146.580521 481.205307 1147.784744 C480.774277 1151.965897 480.500900 1156.163406 479.917587 1160.604691 C478.834305 1163.474075 477.873245 1166.062820 477.236191 1168.729080 C477.010422 1169.674026 477.573898 1170.807327 477.777023 1171.854691 C478.679153 1171.249344 480.318680 1170.687576 480.357376 1170.031326 C480.537094 1166.986771 480.272873 1163.916092 480.167587 1160.854691 M956.167587 789.354691 C954.500961 787.347549 952.585312 785.495926 951.216293 783.302994 C947.705673 777.679337 948.599350 770.825027 953.336777 766.231094 C955.422653 764.208267 957.851852 762.541031 959.953354 760.532608 C967.855758 752.980179 972.706711 743.366348 977.028915 733.612808 C980.078903 726.730301 983.468735 719.354446 983.827926 712.057144 C984.579758 696.785782 976.615402 684.294205 966.901962 673.270828 C959.048569 664.358292 948.637070 659.423477 936.842087 657.908646 C927.912765 656.761734 918.890304 656.071671 910.102279 658.887466 C903.200424 661.099014 896.313156 663.400833 889.564926 666.035355 C882.507614 668.790665 874.774338 666.844437 872.250900 661.006546 C871.683822 659.694473 872.136459 657.927383 872.175461 656.371170 C872.223739 654.446182 872.873337 652.344131 872.310531 650.631607 C870.552109 645.280472 870.134872 640.011002 871.076401 634.426773 C871.855392 629.806656 871.952499 625.054153 872.051864 620.353958 C872.068527 619.566422 870.666550 618.231827 869.734726 618.037003 C866.771835 617.417557 863.718307 616.884415 860.705429 616.913345 C848.787521 617.027603 838.424667 611.891678 828.589462 606.364090 C822.091354 602.711868 817.030380 596.513443 811.278244 591.509903 C810.506271 590.838455 809.453842 590.489395 808.531235 589.991043 C808.329208 591.031509 807.790817 592.141617 807.989242 593.099136 C808.554672 595.827225 809.758652 598.449478 810.112717 601.190628 C812.405746 618.946304 806.189010 634.131546 794.972458 647.339920 C789.886642 653.328873 783.896347 658.675858 777.753403 663.613724 C766.394882 672.744034 755.056259 682.039444 740.845566 686.692398 C728.673385 690.677872 716.228988 693.268143 703.404770 692.726639 C697.620407 692.482376 691.913498 690.724014 686.137802 689.883804 C676.253952 688.445938 667.173874 684.500687 659.160568 679.057022 C645.273239 669.623123 638.466049 655.325882 635.169418 639.205276 C634.414779 635.515274 634.916488 629.960281 632.700241 628.490982 C626.981552 624.699600 626.659286 619.328384 624.986618 613.817032 C622.502243 605.631485 625.785141 598.265884 627.876266 591.164627 C629.741012 584.831985 634.529342 579.102554 638.880295 573.807755 C652.318954 557.453568 667.110946 542.767715 689.085617 538.447830 C698.396530 536.617386 707.465378 532.893997 717.274521 534.835526 C719.610885 535.297989 721.997665 535.500687 724.355881 535.858780 C729.997604 536.715591 735.828781 536.961380 741.232040 538.607437 C749.911117 541.251480 758.369369 544.671280 766.797165 548.070023 C771.506759 549.969315 776.523300 551.793228 780.399093 554.901199 C785.299545 558.830826 789.173324 564.038773 793.504379 568.681900 C794.413254 569.656326 795.348068 570.614395 796.349777 571.489761 C796.659408 571.760330 797.230209 571.732193 797.681381 571.840897 C797.651962 571.487320 797.679062 571.117935 797.584884 570.782547 C795.238449 562.422623 792.712753 554.108414 790.580612 545.694412 C789.155075 540.068802 787.642807 534.335464 787.346664 528.589615 C787.044845 522.732986 786.653183 517.201309 783.215439 512.222672 C782.548935 511.257462 782.078049 509.806168 782.235519 508.679459 C783.337509 500.792252 783.471969 492.387283 788.779281 485.956924 C793.615219 480.097610 795.684677 474.561234 793.453354 466.801224 C792.123825 462.177536 792.251816 456.112411 794.207809 451.829330 C796.564499 446.668991 797.185470 442.950516 792.365280 437.755142 C789.162033 434.302628 789.898910 431.647171 792.067673 428.388535 C792.992843 426.998367 794.403427 425.007858 794.005905 423.822586 C792.395309 419.020462 790.223678 414.399338 788.093674 409.787857 C787.839279 409.237106 786.571701 409.154373 785.773727 408.854691 C785.851425 409.634415 785.784714 410.463303 786.030929 411.185562 C787.274460 414.833298 788.751571 418.409286 789.819259 422.105026 C790.233444 423.538651 789.786789 425.220963 789.732284 426.789993 C789.142990 425.577225 788.601913 424.338211 787.957382 423.155533 C777.103378 403.238297 763.699875 386.557297 739.400436 382.427353 C731.363632 381.061417 727.063339 382.286453 725.351486 390.610764 C723.388534 400.156265 718.388840 407.263840 711.232101 413.306198 C710.470688 413.949020 709.700302 414.631851 709.120834 415.431442 C704.411300 421.930313 698.001327 419.828049 691.858993 418.831100 C687.448349 418.115189 688.041244 414.017624 686.900192 411.102524 C686.620102 410.386887 686.221359 409.714890 685.847946 409.038986 C676.637131 392.365860 662.895737 380.413773 646.138595 371.939224 C635.010544 366.311478 623.651230 361.046768 612.071396 356.432907 C600.480697 351.814682 588.643783 347.441177 575.708603 348.855026 C572.679794 349.186081 569.658432 349.687698 566.621139 349.816422 C561.848129 350.018692 557.442062 351.561966 555.110153 355.618484 C551.665695 361.610245 548.409286 367.890732 546.342819 374.448471 C543.734909 382.724442 541.944015 391.135330 534.139084 396.431320 C533.055466 397.166641 532.110946 398.194901 531.312485 399.247238 C527.835556 403.829819 523.357651 405.347458 517.612045 404.995529 C513.173752 404.723679 511.751144 402.365738 511.208969 398.751297 C510.964523 397.121323 511.557724 395.307205 511.099228 393.778030 C509.237320 387.568100 508.475784 380.414932 504.788009 375.501205 C498.322403 366.886124 490.191208 359.469009 482.412613 351.904984 C473.342392 343.084915 461.155746 340.503159 449.634292 336.987778 C439.806290 333.988968 429.700027 331.738449 419.582290 329.895889 C408.014419 327.789261 396.339065 325.955795 384.629684 325.066055 C377.994827 324.561935 371.190323 326.118607 364.475723 326.867905 C345.748245 328.957932 333.266556 340.012711 326.445541 356.514481 C320.504257 370.887955 316.593307 386.153030 312.550430 401.229324 C311.204086 406.250015 311.637253 411.983597 312.327652 417.250931 C313.071213 422.923782 313.901962 428.058090 309.709884 432.960617 C306.027725 437.266800 303.117294 442.225540 299.649093 446.728958 C299.036056 447.524979 297.377792 447.615036 296.166488 447.830246 C293.819443 448.247208 291.234665 448.037399 289.131424 448.960251 C285.316910 450.634018 282.158951 449.903793 278.808731 447.886307 C271.026047 443.199631 263.318924 447.215530 255.869430 448.863907 C245.119980 451.242508 234.893722 455.573166 225.844101 461.940292 C217.751480 467.634109 209.301269 473.232559 202.565994 480.347305 C192.074020 491.430252 183.093048 503.927444 173.104660 515.508682 C165.530746 524.290359 158.587448 533.530228 154.521774 544.330399 C152.503143 549.692764 150.467880 555.543900 154.473007 561.946548 C162.802399 575.261917 176.316376 581.050735 189.251831 587.755203 C193.413925 589.912369 195.243484 592.841568 193.141220 597.010086 C191.953811 599.364700 190.383224 601.525589 189.188400 603.877029 C184.568573 612.968704 180.121628 622.249100 171.803070 628.645218 C158.952331 638.526382 145.877548 648.115860 132.921219 657.860184 C123.838310 664.691360 116.247337 672.807571 111.153580 683.106766 C106.275673 692.969437 101.156418 702.674332 99.606781 713.842545 C98.064667 724.956558 95.984047 735.995438 94.177849 747.073441 C93.589882 750.679703 92.996124 754.292740 92.628815 757.925308 C92.043220 763.716568 90.901527 769.583206 91.336395 775.316177 C92.043991 784.644669 93.837524 793.890518 95.166351 803.172195 C95.954979 808.680679 96.049011 814.404434 97.689346 819.645218 C99.654114 825.922562 102.994331 831.762100 105.633278 837.837112 C112.542976 853.743729 123.474930 866.714554 136.181518 878.090958 C142.204239 883.483109 149.313583 887.895279 156.479461 891.724380 C168.447449 898.119400 181.773987 899.240982 195.094726 899.879837 C196.127762 899.929398 197.143707 900.335526 198.167587 900.575943 C197.761886 901.907913 197.669861 903.469742 196.892959 904.529617 C194.335190 908.018814 191.668579 911.452225 188.767883 914.657303 C186.961426 916.653275 184.878753 918.612564 182.534317 919.867813 C175.726105 923.513260 169.681396 927.594925 164.999145 934.186539 C157.925964 944.144180 154.126297 955.382584 150.296402 966.636612 C148.539841 971.798233 148.130234 977.424454 147.180481 982.852249 C146.525268 986.596878 145.611282 990.349564 145.479004 994.121902 C145.164673 1003.085892 144.613342 1012.119217 145.390732 1021.016678 C145.906372 1026.918411 148.528045 1032.641312 150.255966 1038.429642 C151.139740 1041.390091 151.958069 1044.390579 153.143371 1047.232254 C153.785614 1048.772049 155.403503 1049.892410 156.112091 1051.419632 C157.600357 1054.627396 158.985412 1057.920120 159.950592 1061.309525 C160.218307 1062.249710 163.430694 1064.381424 159.483032 1065.039261 C159.711212 1066.357620 159.888321 1067.688309 160.201965 1068.986038 C160.284653 1069.328079 160.789261 1069.567947 161.100082 1069.854691 C161.455902 1068.946243 161.810074 1068.037064 162.168381 1067.129471 C162.335083 1066.707352 162.509582 1066.288162 162.680542 1065.867630 C162.842895 1066.300369 162.965622 1066.753250 163.173599 1067.162796 C165.831161 1072.396194 168.529632 1077.608963 171.162018 1082.854935 C177.996002 1096.474075 188.294662 1107.627518 198.665985 1118.307693 C206.851669 1126.737015 216.983047 1133.680618 227.226517 1139.592728 C237.198257 1145.348099 247.848419 1151.229691 260.435928 1147.865677 C269.386825 1145.473343 279.367355 1142.455032 277.141861 1128.528519 C276.295608 1123.232742 279.327682 1120.251419 283.243973 1117.895218 C287.306259 1115.451126 291.496536 1113.445145 295.796402 1117.793289 C296.554031 1118.559402 298.389816 1118.195633 299.272049 1118.913651 C302.345260 1121.414627 306.671005 1123.658768 307.806351 1126.939774 C309.283829 1131.209549 308.121902 1136.377396 308.185867 1141.157547 C308.220535 1143.750809 306.166397 1147.166092 310.837234 1148.137772 C311.383438 1148.251541 312.225448 1149.994461 311.976974 1150.405350 C309.503433 1154.493729 313.107986 1157.139725 314.246567 1160.315628 C314.496383 1161.012527 315.746261 1161.351028 316.535568 1161.854691 C316.412918 1160.939163 316.397232 1159.992874 316.144790 1159.114700 C315.654617 1157.409256 315.031387 1155.742020 314.463272 1154.059036 C315.523941 1155.650101 316.685013 1157.186234 317.601150 1158.856522 C318.032638 1159.643265 317.858169 1160.740433 318.192764 1161.606277 C319.246902 1164.334427 319.661239 1168.182449 321.684463 1169.488846 C326.480240 1172.585648 328.527847 1177.123489 330.678360 1181.847488 C331.062698 1182.691849 331.455002 1183.624710 332.104935 1184.241165 C336.732223 1188.630203 341.576431 1192.799515 346.071762 1197.317093 C357.611282 1208.913773 370.735794 1218.318314 386.054001 1223.931107 C393.055069 1226.496414 401.111862 1228.242508 408.405441 1227.513626 C423.086136 1226.046585 433.416000 1217.131302 440.399338 1204.174515 C448.133896 1189.823563 451.776413 1174.225296 454.034988 1158.354568 C456.304550 1142.406937 457.650802 1126.320267 459.120712 1110.268875 C460.322677 1097.143875 457.687301 1084.436234 453.733383 1072.017166 C452.348678 1067.668045 453.269638 1064.592117 457.353042 1062.952347 C459.551590 1062.069656 462.151932 1061.915848 464.571182 1061.914627 C468.816177 1061.912552 473.414108 1061.309769 477.232529 1062.697098 C485.006027 1065.521805 491.812240 1069.383133 496.629104 1077.331375 C503.106399 1088.019608 513.668503 1095.200150 523.997421 1102.228348 C538.841232 1112.328690 554.867660 1117.934525 572.831283 1113.732254 C588.115768 1110.156693 601.768478 1102.707718 613.294662 1092.070145 C626.976608 1079.443069 636.912033 1063.942093 643.557236 1046.662674 C646.334640 1039.440872 648.116134 1031.232986 647.791733 1023.581985 C647.428085 1015.007645 644.758163 1006.355057 641.954330 998.123978 C640.166000 992.874222 636.906112 988.271194 641.178879 982.959915 C642.591781 981.203445 643.813461 978.811844 645.683395 977.996475 C650.893051 975.724564 656.136886 977.018204 661.491806 978.551407 C673.371200 981.952713 685.173080 985.961990 697.899093 984.924637 C703.088425 984.501663 708.341110 984.854691 713.564926 984.854691 C717.455429 984.854691 721.358139 985.055008 725.234360 984.819412 C740.882919 983.868240 756.161423 980.925858 771.006149 975.848343 C784.689682 971.167984 798.571884 966.935196 809.661056 956.891373 C828.046737 940.239029 838.769943 920.067398 836.969345 894.789444 C836.359176 886.224014 834.067917 877.674698 826.559433 871.624344 C820.090805 866.411880 813.938278 860.776260 807.936447 855.024673 C803.002426 850.296280 802.980392 843.773270 807.141159 840.329361 C814.456711 834.274246 822.627487 834.496109 831.244980 836.379715 C838.900497 838.052994 843.756027 843.581863 849.347641 848.336014 C853.985336 852.278946 859.056015 856.218338 864.623825 858.404739 C869.237411 860.216446 874.968002 860.325455 880.005173 859.667923 C889.156845 858.473221 898.373703 856.832047 907.164718 854.096146 C915.347030 851.549576 922.930282 847.137466 930.921799 843.903824 C941.350387 839.683975 948.277878 832.121353 952.086532 821.839249 C955.830856 811.730911 958.187851 801.285233 956.167587 789.354691 M843.167587 551.354691 C847.167587 559.195084 850.839767 567.225906 855.255050 574.824966 C860.177536 583.297012 867.795395 587.589981 877.828293 586.827408 C879.704086 586.684769 881.542160 586.094925 883.416855 585.877151 C886.040024 585.572403 888.759140 585.741714 891.294052 585.122330 C894.111435 584.433975 896.685226 582.614883 899.510849 582.119949 C906.783188 580.845779 911.614853 576.426102 915.753830 570.787430 C923.994369 559.561050 925.861374 547.116898 923.183822 533.693069 C920.147934 518.472549 913.499130 504.691177 905.906601 491.391495 C904.260238 488.507523 900.479965 486.314346 897.202377 485.005753 C891.476608 482.719742 885.443893 481.084793 879.422104 479.682999 C867.555771 476.920731 856.088180 477.645889 845.124557 483.781082 C837.787643 487.886856 834.433456 494.544815 831.620346 501.859512 C830.018234 506.025528 830.385849 509.627518 831.956100 514.000015 C836.237778 525.922745 839.500961 538.211136 843.167587 551.354691 M694.667587 640.854691 C696.786728 644.307144 698.290085 648.418106 701.142929 651.086014 C709.024093 658.456436 717.970688 661.196976 729.157455 658.086136 C741.902878 654.541885 751.456894 647.441116 755.680710 635.437088 C759.727402 623.936478 759.804123 611.610367 754.710617 599.908218 C751.099838 591.612442 748.170517 582.838699 741.244797 576.543289 C736.758591 572.465286 731.877365 568.789200 726.957138 565.231827 C723.056381 562.411514 713.365707 563.011856 709.737778 565.868973 C696.338119 576.421646 690.046005 590.944290 688.311935 607.380997 C687.113327 618.743118 689.396225 629.862442 694.667587 640.854691 M1020.667526 716.854691 C1020.478744 715.521378 1020.289902 714.188004 1020.101059 712.854630 C1019.456528 713.665176 1018.393234 714.434830 1018.308822 715.300064 C1018.248459 715.918594 1019.500900 716.665237 1020.667526 716.854691 M470.167618 1192.354691 C469.968063 1193.488480 469.768478 1194.622147 469.568893 1195.755936 C470.218887 1195.788895 471.409408 1195.944290 471.434097 1195.835526 C471.649093 1194.887283 471.759689 1193.882401 471.671463 1192.915237 C471.636673 1192.534378 471.019485 1192.206619 470.167618 1192.354691 M1014.667526 728.854630 C1015.500900 728.318924 1016.358810 727.813553 1017.123398 727.193130 C1017.188339 727.140335 1016.629501 726.318985 1016.360458 725.854691 C1015.629501 726.688065 1014.898544 727.521378 1014.667526 728.854630 M797.167526 434.354691 C796.960983 435.148087 796.754379 435.941513 796.547836 436.734970 C797.109360 436.586655 798.158737 436.417130 798.153427 436.293381 C798.117843 435.475021 797.855820 434.666458 797.167526 434.354691 M473.167587 1195.354691 C473.373825 1196.188065 473.580063 1197.021317 473.786270 1197.854568 C474.205337 1197.729324 474.624405 1197.603958 475.043503 1197.478714 C474.584884 1196.604080 474.126236 1195.729324 473.167587 1195.354691 z"/><path class="selected"  fill="#000000" opacity="1.000000" stroke="none" 
 	d="
M967.167587 407.854691 C983.177719 407.621140 996.704330 413.321274 1009.980087 420.823837 C1016.417282 424.461716 1020.267685 429.916397 1024.947494 434.986496 C1029.278183 439.678391 1034.135361 443.912827 1038.986435 448.086380 C1042.419540 451.039871 1043.443832 446.913071 1043.984360 445.347397 C1047.953842 433.849625 1050.026840 422.375931 1045.287704 410.282181 C1040.838730 398.929184 1042.319076 393.964493 1052.311508 387.659470 C1055.846054 385.429184 1061.494247 385.487259 1065.968490 386.079605 C1071.401108 386.798843 1076.733017 388.888168 1081.879013 390.955765 C1085.562485 392.435745 1088.873276 394.846512 1092.332626 396.872299 C1092.576034 397.014786 1092.840072 397.633530 1092.813217 397.653610 C1088.711654 400.710800 1093.369613 401.921188 1094.239364 403.713120 C1099.427475 414.402451 1104.883163 424.961502 1110.155624 435.610458 C1117.204208 449.846481 1124.577499 463.941849 1131.041611 478.440811 C1136.488754 490.659134 1140.904037 503.341995 1145.628280 515.875076 C1146.947738 519.375809 1144.804672 521.580338 1141.809189 522.822281 C1135.126694 525.592728 1128.436264 528.372025 1121.616806 530.771561 C1118.536606 531.855362 1115.147079 532.083389 1111.879745 532.581558 C1111.467636 532.644485 1110.842758 532.071304 1110.489487 531.648331 C1105.637070 525.837906 1100.718368 520.078018 1096.038437 514.130692 C1094.431625 512.088699 1093.395370 509.585892 1092.175033 507.253494 C1086.158432 495.753250 1080.229721 484.205948 1074.046249 472.796463 C1073.564682 471.907852 1070.976059 471.196548 1070.022934 471.684586 C1063.818588 474.861526 1057.899032 478.597122 1051.679916 481.741531 C1047.022079 484.096451 1042.040512 485.805862 1037.230697 487.867203 C1034.353134 489.100357 1031.951645 489.934280 1034.002792 494.418350 C1038.735580 504.764847 1042.676742 515.476089 1046.815658 526.087418 C1047.228500 527.145645 1047.258407 528.844193 1046.675400 529.718033 C1043.458237 534.540176 1039.793075 538.911270 1033.529159 539.892044 C1032.813583 540.004044 1031.952987 540.467545 1031.540512 541.041580 C1027.388168 546.818802 1020.607406 546.810318 1014.730026 548.778885 C1014.432052 548.878738 1013.814194 548.902298 1013.799423 548.844925 C1012.351608 543.196060 1004.343735 545.182510 1002.819076 538.311172 C1000.946457 529.871780 997.566391 521.303543 992.838608 514.103836 C988.884079 508.081680 988.634628 501.131851 985.149826 495.203445 C981.795334 489.496658 979.051071 483.422195 976.186386 477.438492 C971.662155 467.988480 966.880844 458.635178 962.916000 448.951187 C959.007797 439.405655 955.948654 429.510361 952.616928 419.734451 C952.314682 418.847672 952.339279 417.300858 952.894211 416.758469 C956.866867 412.875961 960.779526 408.803604 967.167587 407.854691 z"/><path class="selected"  fill="#000000" opacity="1.000000" stroke="none" 
 	d="
M1099.417587 950.604691 C1090.801132 940.988113 1082.105331 931.886246 1074.246567 922.111404 C1071.494369 918.688004 1070.459579 913.701126 1069.263412 909.260452 C1068.061874 904.800247 1071.771957 905.013077 1073.853134 906.228592 C1083.685165 911.971390 1093.197983 918.257706 1102.974594 924.099442 C1111.496689 929.191666 1119.896469 934.684891 1128.943344 938.647415 C1137.951889 942.593399 1147.901108 944.345474 1157.066879 947.991898 C1167.073593 951.972794 1176.632309 957.072342 1186.435409 961.577530 C1189.227646 962.860794 1192.117538 964.336502 1195.092636 964.722672 C1199.574325 965.304520 1197.907089 967.495316 1196.858139 969.594193 C1196.434189 970.442703 1195.616806 971.368668 1194.764511 971.687515 C1184.048935 975.696243 1173.915146 981.612869 1161.636459 979.946487 C1148.625961 978.180923 1136.532211 973.987137 1125.327865 967.393509 C1116.564804 962.236649 1108.206039 956.393143 1099.417587 950.604691 z"/><path class="selected"  fill="#000000" opacity="1.000000" stroke="none" 
 	d="
M791.417587 153.104691 C784.083542 172.190430 773.193832 188.863403 761.430527 204.979401 C756.041611 212.362289 749.958969 219.239243 744.174423 226.332108 C743.650741 226.974228 743.094650 227.670609 742.398727 228.075607 C740.666366 229.083817 738.844589 229.938400 737.058700 230.854691 C736.428329 228.860184 735.763840 226.875748 735.173324 224.869522 C732.296921 215.097000 737.754013 206.504471 739.438644 197.424240 C740.178757 193.435135 743.883529 190.002670 746.216781 186.301437 C760.537765 163.584473 774.841415 140.856567 789.177963 118.149429 C791.436935 114.571594 793.120041 109.054321 796.302414 107.932892 C805.592392 104.659286 806.175400 94.372421 813.491134 89.263992 C819.404220 85.135010 822.520553 77.001244 826.878586 70.644684 C827.227768 70.135391 827.584396 69.631226 827.937607 69.124702 C828.014267 69.759239 828.316635 70.470016 828.132187 71.016327 C826.504562 75.834282 825.009201 80.714005 823.058700 85.402420 C818.211716 97.053680 813.369919 108.717194 808.087387 120.173538 C804.661850 127.602798 800.391769 134.638794 796.644272 141.925110 C794.815536 145.480927 793.316147 149.206161 791.417587 153.104691 z"/><path class="selected"  fill="#000000" opacity="1.000000" stroke="none" 
 	d="
M529.167587 72.854691 C531.167587 66.187050 533.161667 60.017471 535.184921 53.857483 C535.285873 53.550209 535.639938 53.326088 535.876144 53.063255 C535.973251 53.356163 536.135361 53.644920 536.154342 53.942825 C536.196762 54.606400 536.149948 55.275124 536.171127 55.940735 C536.219894 57.472389 536.287582 59.003448 536.347641 60.534744 C536.954330 59.000458 537.773849 57.513817 538.129867 55.923424 C539.498520 49.809685 540.797653 43.677460 541.947372 37.519394 C542.305588 35.600555 542.074203 33.576187 542.189621 31.604630 C542.223617 31.023537 542.521225 30.457878 542.698105 29.885178 C542.933517 30.453957 543.075790 31.089584 543.425339 31.576454 C544.006698 32.386086 544.720932 33.100288 545.379257 33.854691 C545.642013 32.853859 546.064316 31.865051 546.140854 30.850151 C546.532150 25.662254 545.550400 19.903671 547.516159 15.428490 C549.628158 10.620441 550.460678 5.895374 551.189255 0.944424 C551.238998 0.606354 551.597824 0.313751 551.812912 0.000000 C551.931137 0.450741 552.145920 0.899841 552.153610 1.352470 C552.391647 15.334194 553.114242 29.316063 550.257370 43.189400 C549.349655 47.597099 549.722946 52.252716 549.119186 56.742317 C548.021713 64.901833 546.674789 73.029007 545.351669 81.156624 C544.007370 89.414490 542.609665 97.664230 541.156662 105.903641 C539.315597 116.342850 536.390243 126.397186 531.244430 135.786438 C529.114548 139.672806 527.941147 144.072128 526.136093 148.151169 C524.486740 151.878326 521.020187 153.051880 517.842148 150.813538 C511.952926 146.665604 506.637131 137.513474 510.256821 129.489853 C516.503891 115.641968 521.224838 101.316833 525.186264 86.695450 C526.399399 82.217644 527.834274 77.799927 529.167587 72.854691 z"/><path class="selected"  fill="#000000" opacity="1.000000" stroke="none" 
 	d="
M287.917587 1384.604691 C286.834244 1393.661087 285.927749 1402.461502 285.187881 1411.275711 C284.429519 1420.309891 283.727524 1429.351639 283.212570 1438.402176 C282.954574 1442.936722 283.167587 1447.498123 283.167587 1452.047318 C283.167587 1453.711258 283.369705 1455.407425 283.111099 1457.030106 C282.848800 1458.676102 282.131485 1460.249466 281.613449 1461.854691 C280.462570 1460.685867 279.032455 1459.685623 278.207474 1458.319778 C273.875442 1451.147903 268.092911 1444.336868 265.886062 1436.532059 C263.350815 1427.565750 263.307876 1417.673660 263.535690 1408.216141 C263.723923 1400.402542 266.427475 1392.678909 267.042282 1384.839188 C268.012375 1372.468460 273.801376 1362.291214 281.513504 1353.464676 C285.635757 1348.746780 295.834091 1347.604324 299.940048 1353.753738 C302.035141 1356.891556 300.922317 1362.810135 299.890701 1367.146072 C299.314712 1369.566849 296.573532 1372.319901 292.548904 1371.029251 C291.794144 1370.787308 289.558639 1372.648758 289.309769 1373.817337 C288.577682 1377.254959 288.500900 1380.832108 287.917587 1384.604691 z"/><path class="selected"  fill="#000000" opacity="1.000000" stroke="none" 
 	d="
M194.417587 171.604691 C188.518631 163.705734 182.464859 156.317596 177.325394 148.340378 C171.196869 138.828018 165.846313 128.814041 160.181579 119.004166 C159.840607 118.413681 159.701462 117.706665 159.468414 117.053864 C160.252273 117.038284 161.190399 116.736252 161.791504 117.059998 C163.711624 118.094101 165.745804 119.105804 167.312378 120.577148 C180.522766 132.984634 193.953613 145.181686 206.681442 158.070786 C216.480621 167.994141 225.168670 179.052933 230.675873 192.025650 C234.400207 200.798599 237.099151 210.012192 240.105347 219.078873 C240.552933 220.428787 240.638534 222.274063 240.065399 223.505661 C239.010330 225.772751 237.341400 227.754196 235.928299 229.854691 C234.341385 228.456223 232.281128 227.339798 231.250488 225.609940 C227.051376 218.561935 223.711151 210.947693 219.044906 204.244888 C211.329681 193.162354 202.834244 182.622971 194.417587 171.604691 z"/><path class="selected"  fill="#000000" opacity="1.000000" stroke="none" 
 	d="
M920.917587 1099.104691 C918.669662 1094.856766 916.332260 1090.984451 914.788742 1086.818192 C913.693344 1083.861404 913.444931 1080.522903 913.226425 1077.326859 C912.973495 1073.626785 913.051742 1069.891556 913.197433 1066.179886 C913.372726 1061.714798 915.379745 1060.268997 918.338669 1062.990433 C923.040878 1067.315262 927.671371 1072.059158 931.034286 1077.437332 C942.898727 1096.411819 954.280563 1115.690384 965.700546 1134.939529 C970.597092 1143.193069 975.142135 1151.655472 979.825119 1160.035110 C980.041000 1160.421585 980.042221 1160.928177 980.143417 1161.378738 C979.575180 1161.461136 978.833237 1161.813065 978.469162 1161.578445 C977.003647 1160.634232 975.586838 1159.586258 974.274704 1158.436722 C968.425155 1153.311600 962.616745 1148.139481 956.797836 1142.979446 C956.424972 1142.648758 956.119980 1142.006790 955.731857 1141.962601 C944.241440 1140.654373 940.352341 1131.047440 935.220627 1122.974319 C930.308151 1115.246170 925.834213 1107.239090 920.917587 1099.104691 z"/><path class="selected"  fill="#000000" opacity="1.000000" stroke="none" 
 	d="
M611.917587 1442.104691 C609.500961 1439.976761 606.680404 1438.490433 605.280624 1436.153275 C599.168930 1425.948807 597.476547 1414.357010 594.952011 1402.920242 C592.391586 1391.321365 595.587875 1382.252274 603.403000 1374.121048 C603.749374 1373.760696 604.121933 1373.425125 604.460190 1373.057571 C605.644333 1371.771194 606.818832 1370.475906 607.996994 1369.184036 C609.387192 1370.940994 611.500290 1372.505814 612.027817 1374.491898 C613.437973 1379.800735 614.170456 1385.289627 615.166977 1390.707962 C617.502121 1403.404373 619.250473 1416.248123 622.391952 1428.741653 C624.205429 1435.953812 628.262985 1442.602615 631.317612 1449.501663 C632.128158 1451.332474 633.034408 1453.124344 633.766708 1454.985306 C634.327926 1456.411697 634.684799 1457.918655 635.132553 1459.389725 C633.641220 1458.875076 631.863205 1458.716995 630.706405 1457.786453 C624.442062 1452.747879 618.331283 1447.518387 611.917587 1442.104691 z"/><path class="selected"  fill="#000000" opacity="1.000000" stroke="none" 
 	d="
M1231.167587 670.854691 C1226.279159 670.188004 1221.825058 669.797440 1217.521347 668.774368 C1213.486923 667.815323 1209.425766 666.566971 1205.713730 664.755020 C1201.253769 662.578201 1197.128769 659.705215 1192.905624 657.059097 C1191.614487 656.250015 1190.477035 655.195206 1189.269272 654.252945 C1190.742172 653.786819 1192.258041 652.814713 1193.680893 652.935989 C1203.608627 653.782120 1213.518295 654.840897 1223.430893 655.859756 C1229.654648 656.499405 1235.928818 656.867447 1242.081283 657.930313 C1251.187973 659.503433 1260.234360 661.464554 1269.249740 663.509964 C1272.842514 664.325089 1276.297714 665.767899 1279.781112 667.020706 C1280.324203 667.216019 1280.682602 667.924576 1281.126449 668.395828 C1280.523422 668.548782 1279.925278 668.812332 1279.316757 668.838638 C1263.434311 669.525528 1247.550888 670.188004 1231.167587 670.854691 z"/><path class="selected"  fill="#000000" opacity="1.000000" stroke="none" 
 	d="
M73.417587 395.604691 C58.865692 387.719437 44.553974 380.102402 30.287937 372.400742 C29.492874 371.971512 29.075144 370.843338 28.481775 370.040512 C29.520304 369.955154 30.653591 369.553940 31.582905 369.832657 C42.523327 373.114426 53.685760 375.863785 64.262886 380.076248 C71.385734 382.913040 77.676384 387.844589 84.328224 391.857437 C91.383087 396.113388 98.533676 400.225388 105.415863 404.745285 C107.978775 406.428452 110.054428 408.961777 112.028526 411.372543 C112.689171 412.179306 112.344307 413.809433 112.459060 415.063217 C111.205292 415.003769 109.729515 415.356277 108.733055 414.819321 C101.106163 410.709366 93.598434 406.379105 85.999534 402.216110 C81.944313 399.994461 77.781715 397.968826 73.417587 395.604691 z"/><path class="selected"  fill="#000000" opacity="1.000000" stroke="none" 
 	d="
M757.167587 1280.854691 C757.428268 1278.521317 757.689010 1276.688065 757.949814 1274.854691 C759.861740 1276.194046 762.253036 1277.166946 763.604172 1278.934769 C770.134445 1287.479935 776.559921 1296.118607 782.650375 1304.979935 C785.157211 1308.627274 786.820175 1312.875565 788.664657 1316.942459 C789.139084 1317.988358 788.846420 1319.382156 788.906112 1320.616165 C787.912460 1320.362259 786.916733 1320.116531 785.925644 1319.853348 C779.564926 1318.164749 775.055466 1313.772049 770.967087 1309.055252 C765.105331 1302.292435 759.712814 1295.150711 757.879623 1286.053177 C757.567062 1284.502274 757.401169 1282.921585 757.167587 1280.854691 z"/><path class="selected"  fill="#000000" opacity="1.000000" stroke="none" 
 	d="
M54.167587 1142.854691 C49.345508 1148.843460 44.926800 1154.766312 39.602444 1159.714554 C32.434799 1166.376175 24.595060 1172.318924 16.960432 1178.466629 C16.239990 1179.046707 14.925522 1178.889114 13.886820 1179.073929 C14.112692 1178.035233 13.988232 1176.653763 14.617935 1176.010208 C22.042827 1168.420731 29.723587 1161.077713 37.042282 1153.389359 C42.635414 1147.513748 48.208359 1141.537674 53.059074 1135.058670 C58.291218 1128.070389 62.614921 1120.406204 67.491981 1113.142410 C68.162315 1112.143997 69.737610 1111.753128 70.893928 1111.081009 C70.842399 1112.315018 71.094513 1113.659378 70.692070 1114.765701 C66.963341 1125.016312 61.085995 1134.002274 54.167587 1142.854691 z"/><path class="selected"  fill="#000000" opacity="1.000000" stroke="none" 
 	d="
M4.167590 366.854691 C4.439881 372.035019 4.064354 376.563766 1.181320 380.536270 C0.921897 380.893692 0.855173 381.390976 0.698971 381.823318 C0.521846 381.586258 0.140962 381.269150 0.197943 381.124039 C1.161744 378.669662 -1.771390 375.532028 1.945586 373.403641 C4.175307 372.126816 3.561241 371.348984 1.068216 369.708939 C0.198596 369.136856 0.268189 366.883255 0.259856 365.395584 C0.256996 364.885056 1.732955 363.853226 1.836846 363.935806 C2.705716 364.626419 3.412168 365.521347 4.167590 366.854691 z"/><path class="selected"  fill="#000000" opacity="1.000000" stroke="none" 
 	d="
M1.167589 108.854691 C1.500920 115.834610 1.854679 122.313660 2.134956 128.795868 C2.162007 129.421509 1.733180 130.066879 1.515975 130.703079 C1.399844 130.089386 1.210661 129.479446 1.178791 128.861404 C0.827623 122.051498 0.499311 115.240417 0.180723 108.428909 C0.175139 108.309509 0.386253 108.064972 0.461971 108.077972 C0.705827 108.119980 0.933611 108.255325 1.167589 108.854691 z"/><path class="selected"  fill="#000000" opacity="1.000000" stroke="none" 
 	d="
M488.917587 1127.604691 C489.279190 1126.576492 489.390793 1125.798172 489.502365 1125.019974 C489.724075 1125.477493 490.161758 1125.948563 490.134262 1126.390579 C489.855575 1130.873001 489.512588 1135.351517 489.141311 1139.827347 C489.116501 1140.126419 488.715500 1140.394241 488.489487 1140.676590 C488.382217 1140.391312 488.188217 1140.107742 488.182144 1139.820267 C488.150802 1138.336990 488.203201 1136.851273 488.153091 1135.368973 C488.126663 1134.586502 488.038162 1133.152908 487.829788 1133.125198 C482.055893 1132.357254 487.590011 1130.923294 487.680435 1129.901443 C487.742904 1129.195511 488.320267 1128.535355 488.917587 1127.604691 z"/><path class="selected"  fill="#000000" opacity="1.000000" stroke="none" 
 	d="
M995.167587 800.854691 C995.167587 797.715775 995.106369 795.074722 995.195663 792.438858 C995.235031 791.278397 995.580246 790.128372 995.786484 788.973587 C996.246872 790.102371 997.129928 791.245865 997.090988 792.357193 C996.956955 796.184464 996.514328 800.001907 996.141891 803.818375 C996.112045 804.124527 995.719406 804.395279 995.495346 804.682449 C995.386154 803.573257 995.276901 802.463943 995.167587 800.854691 z"/><path class="selected"  fill="#000000" opacity="1.000000" stroke="none" 
 	d="
M858.417587 947.104691 C860.275131 943.580460 861.854965 940.291885 863.523056 937.048782 C863.750534 936.606461 864.419052 936.391006 864.883407 936.070511 C864.978134 936.359634 865.241379 936.737320 865.142807 936.924759 C863.085922 940.837479 861.004135 944.737503 858.856430 948.600723 C858.733627 948.821609 858.006515 948.706558 857.560654 948.747757 C857.762924 948.283401 857.965256 947.819046 858.417587 947.104691 z"/><path class="selected"  fill="#000000" opacity="1.000000" stroke="none" 
 	d="
M2.417587 394.604691 C-1.392771 393.322556 0.705133 390.401810 0.198025 388.353806 C0.187046 388.309464 0.778636 388.007736 0.839266 388.069870 C1.971338 389.230270 3.412005 390.276443 4.024336 391.679764 C4.339922 392.403030 3.167586 393.775558 2.417587 394.604691 z"/><path class="selected"  fill="#000000" opacity="1.000000" stroke="none" 
 	d="
M0.917588 504.104691 C1.167587 507.904190 1.177534 511.453690 1.147854 515.002945 C1.145590 515.273758 0.862848 515.542252 0.710484 515.811783 C0.529523 515.416336 0.180543 515.015152 0.193781 514.626358 C0.316065 511.034561 0.500921 507.444962 0.917588 504.104691 z"/><path class="selected"  fill="#000000" opacity="1.000000" stroke="none" 
 	d="
M680.917587 1034.604691 C680.471359 1033.325027 680.138290 1031.793045 680.165939 1030.267410 C680.173813 1029.834915 681.234360 1029.421585 681.812179 1028.999344 C681.597275 1030.784500 681.382431 1032.569534 680.917587 1034.604691 z"/><path class="selected"  fill="#000000" opacity="1.000000" stroke="none" 
 	d="
M869.417587 930.104691 C868.252060 931.439163 867.336532 932.523636 866.421005 933.608109 C866.811325 932.048843 867.117660 930.461197 867.630417 928.943314 C867.857529 928.270950 868.502121 927.739639 868.957077 927.144241 C869.193893 928.047684 869.430710 928.951187 869.417587 930.104691 z"/><path class="selected"  fill="#000000" opacity="1.000000" stroke="none" 
 	d="
M683.167587 1024.854691 C683.054367 1026.134598 682.941086 1026.914505 682.827804 1027.694412 C682.607712 1027.230911 682.278061 1026.786331 682.194626 1026.299393 C682.084579 1025.656815 682.144150 1024.980179 682.171799 1024.319778 C682.273544 1021.885452 682.392258 1019.451614 682.504623 1017.017654 C682.725571 1019.463333 682.946579 1021.909012 683.167587 1024.854691 z"/><path class="selected"  fill="#000000" opacity="1.000000" stroke="none" 
 	d="
M5.167587 27.854691 C7.117707 27.638138 8.567827 27.421593 10.017948 27.205048 C9.886264 27.436493 9.794148 27.830605 9.616665 27.873787 C8.122925 28.237144 6.614164 28.539192 5.107993 28.850342 C4.951036 28.882767 4.775949 28.882294 4.618830 28.850243 C3.530712 28.628288 2.445126 28.393936 1.358729 28.163559 C2.461682 28.060600 3.564635 27.957642 5.167587 27.854691 z"/><path class="selected"  fill="#000000" opacity="1.000000" stroke="none" 
 	d="
M872.417587 916.104691 C872.834274 916.279495 873.234970 916.776749 873.129562 917.117325 C872.454208 919.299026 871.667648 921.446182 870.917648 923.604691 C870.880295 922.975357 870.683761 922.303543 870.837875 921.725174 C871.189804 920.404495 871.752914 919.141434 872.145920 917.829727 C872.281662 917.376541 872.167587 916.848526 872.417587 916.104691 z"/><path class="selected"  fill="#000000" opacity="1.000000" stroke="none" 
 	d="
M670.167587 1059.104691 C670.331711 1058.854691 670.637924 1058.839432 670.639816 1058.856888 C670.830612 1060.640335 671.005356 1062.425858 671.127609 1064.214798 C671.130661 1064.259476 670.538498 1064.344803 670.223984 1064.411087 C670.205185 1062.725662 670.186386 1061.040115 670.167587 1059.104691 z"/><path class="selected"  fill="#000000" opacity="1.000000" stroke="none" 
 	d="
M3.167588 150.854691 C3.269010 148.253265 3.370433 146.151855 3.471854 144.050430 C3.703763 144.153641 4.140161 144.262070 4.137680 144.359283 C4.075601 146.791962 3.968183 149.223511 3.852756 151.654480 C3.851714 151.676392 3.606772 151.738220 3.523463 151.693146 C3.384483 151.617950 3.284176 151.471283 3.167588 150.854691 z"/><path class="selected"  fill="#000000" opacity="1.000000" stroke="none" 
 	d="
M875.417587 907.854691 C875.167587 907.692886 875.153183 907.529617 875.169784 907.369522 C875.357406 905.555374 875.549728 903.741714 875.740829 901.927933 C875.716415 903.903519 875.692001 905.879105 875.417587 907.854691 z"/><path class="selected"  fill="#000000" opacity="1.000000" stroke="none" 
 	d="
M1.167593 610.854691 C1.077483 610.188004 0.987377 609.021378 0.897268 607.854691 C1.316447 608.017105 1.735629 608.179520 2.154819 608.341934 C1.825749 609.012833 1.496672 609.683792 1.167593 610.854691 z"/><path class="selected"  fill="#000000" opacity="1.000000" stroke="none" 
 	d="
M874.917587 907.854691 C875.167587 908.015640 875.184860 908.178726 875.164902 908.337112 C874.978378 909.819046 874.785446 911.300125 874.594345 912.781448 C874.618759 911.139175 874.643173 909.496964 874.917587 907.854691 z"/><path class="selected"  fill="#000000" opacity="1.000000" stroke="none" 
 	d="
M482.917587 1157.604691 C482.553970 1157.741043 482.337692 1157.623245 482.342270 1157.514481 C482.406509 1155.987015 482.500900 1154.460770 482.587997 1152.934280 C482.781235 1154.407791 482.974441 1155.881180 482.917587 1157.604691 z"/><path class="selected"  fill="#000000" opacity="1.000000" stroke="none" 
 	d="
M584.417587 610.604691 C586.891464 611.521317 589.126694 612.152481 591.336960 612.861526 C597.188522 614.738785 599.138412 618.844070 597.640976 624.936661 C595.329513 634.340958 593.230636 643.800064 591.218307 653.273453 C590.644394 655.974930 591.227585 658.217972 594.956405 657.878372 C606.982590 656.783218 618.350204 660.067276 629.405868 664.030533 C634.774154 665.954971 640.346542 668.168472 643.790085 673.765152 C646.536972 678.229568 650.854416 681.706619 653.778793 686.086624 C664.085190 701.522537 661.256210 719.413223 649.338058 731.840469 C640.164352 741.405960 629.755234 749.907364 619.213913 757.993423 C613.281418 762.544083 605.924484 765.216324 599.296432 768.891983 C596.560165 770.409500 594.269272 772.956314 591.399765 773.964798 C583.088913 776.885635 574.633957 779.433792 566.135055 781.761429 C563.198532 782.565689 561.616928 783.766739 561.118393 786.818130 C560.308639 791.774307 555.094406 796.253983 550.315353 796.941849 C548.565903 797.193680 546.843124 798.264114 545.314255 799.273209 C542.691574 801.004471 540.220993 802.967789 537.704086 804.857132 C529.838241 810.761734 521.683456 809.485550 513.430771 805.853592 C511.175155 804.860855 508.694626 804.164261 506.767471 802.727798 C505.759720 801.976578 505.906326 799.825943 505.224777 798.460403 C502.946945 793.896683 500.198227 789.540115 498.248581 784.847183 C495.590317 778.448685 493.930038 771.618484 491.065048 765.327103 C486.972153 756.339249 482.151565 747.683853 477.699264 738.857498 C476.730575 736.937271 475.952896 734.914505 475.176315 732.904556 C471.043472 722.207840 467.121231 711.410110 460.002182 702.189774 C456.606125 697.791275 452.448929 693.779373 449.979965 688.911087 C445.813095 680.694595 442.864700 671.870010 439.131454 663.421524 C433.938797 651.670425 439.867203 642.123611 445.174545 632.570938 C446.265762 630.606888 449.167465 629.623367 451.282120 628.261612 C452.848953 627.252579 454.409408 626.158646 456.119125 625.461807 C459.896499 623.922134 462.630691 620.058975 467.844620 621.703140 C473.863022 623.600967 478.648422 619.555984 483.772079 616.945694 C497.619400 609.890945 512.717697 606.031876 527.611069 602.242325 C535.305954 600.284317 543.871322 599.910233 552.349289 602.604202 C561.134689 605.396011 570.571091 606.110672 579.684006 607.927750 C581.276535 608.245316 582.677902 609.521317 584.417587 610.604691 M602.167587 700.354691 C600.402206 696.922623 599.248825 692.938370 596.749557 690.168411 C590.734299 683.501663 586.974777 682.689774 577.850754 687.940994 C565.121567 695.267227 553.020248 703.698380 540.839645 711.936722 C539.840622 712.612503 539.617111 715.686661 540.190658 717.210770 C542.247177 722.675491 544.968979 727.886673 547.118515 733.320511 C549.101059 738.332352 550.515915 743.568436 552.492172 748.583145 C553.408249 750.907669 554.734604 752.319778 558.124252 750.984940 C570.553634 746.090286 582.836838 741.369888 593.748459 733.100235 C605.840439 723.935989 607.764999 713.602432 602.167587 700.354691 M531.667587 668.854691 C534.925339 664.325760 535.983627 658.776566 538.861557 653.929886 C542.133163 648.420364 543.632614 641.700272 543.236984 634.837540 C542.880234 628.649979 539.443222 626.458145 533.549423 628.801224 C528.697067 630.730118 523.695785 632.314590 518.692917 633.828079 C508.482956 636.916946 506.369613 642.716019 511.051254 652.437515 C514.636215 659.881790 517.114609 667.854935 520.220749 675.538040 C520.726730 676.789444 521.936691 677.756302 522.821213 678.854691 C523.607712 678.017044 524.422165 677.203690 525.175155 676.336990 C527.186752 674.021805 529.171921 671.683670 531.667587 668.854691 z"/></svg>